<svg xmlns="http://www.w3.org/2000/svg" width="20" height="20" viewBox="0 0 20 20">
  <path fill="#a3bbc8" fill-rule="evenodd" d="M759.45,1579.8l-4.588-4.59a8.827,8.827,0,0,1-2.651,2.65l4.588,4.59A1.874,1.874,0,0,0,759.45,1579.8Zm-4.45-9.3a7.5,7.5,0,1,0-7.5,7.5A7.5,7.5,0,0,0,755,1570.5Zm-7.5,5.62a5.625,5.625,0,1,1,5.625-5.62A5.628,5.628,0,0,1,747.5,1576.12Zm-4.375-5.62h1.25a3.135,3.135,0,0,1,3.125-3.13v-1.25A4.386,4.386,0,0,0,743.125,1570.5Z" transform="translate(-740 -1563)"/>
  <path fill-rule="evenodd"  fill="rgb(255, 255, 255)"
  d="M73.500,45.000 C85.926,45.000 96.000,55.073 96.000,67.500 C96.000,79.926 85.926,90.000 73.500,90.000 C61.074,90.000 51.000,79.926 51.000,67.500 C51.000,55.073 61.074,45.000 73.500,45.000 Z"/>
</svg>
