<svg id="admin" width="15" height="17" fill="none" xmlns="http://www.w3.org/2000/svg">
<path fill-rule="evenodd" clip-rule="evenodd" d="M3.48574 7.93563C3.631 9.72313 5.09184 11.6687 6.94742 11.6687C8.803 11.6687 10.2638 9.72313 10.4091 7.93625C11.0691 7.84125 11.3685 7.43187 11.3685 7.02875V5.79125C11.3685 5.40375 10.9864 5.125 10.7369 4.98375V4.0425C11.1866 3.465 11.2838 2.83812 11.0104 2.265C10.6422 1.49687 9.68153 1 8.563 1C7.9851 1 7.11542 1.13563 6.21163 1.76938C3.53121 1.79563 3.15795 2.82375 3.15795 3.93438V4.98375C2.90847 5.125 2.52637 5.40375 2.52637 5.79063V7.02812C2.52637 7.4325 2.82637 7.84063 3.48574 7.93563ZM6.50531 2.32687C7.30047 1.74125 8.06342 1.61875 8.56363 1.61875C9.42447 1.61875 10.1786 1.98375 10.4382 2.52937C10.6188 2.90625 10.5291 3.325 10.1779 3.73688C10.1306 3.79312 10.1047 3.8625 10.1047 3.935V5.1725C10.1047 5.29437 10.1779 5.405 10.2916 5.455C10.4937 5.54437 10.723 5.71875 10.7363 5.79187V7.02938C10.7363 7.25812 10.3958 7.33875 10.1047 7.33875C9.93037 7.33875 9.78889 7.47813 9.78889 7.64813C9.78889 9.18937 8.52131 11.0512 6.94679 11.0512C5.37226 11.0512 4.10468 9.19 4.10468 7.64813C4.10468 7.47813 3.96321 7.33875 3.78889 7.33875C3.49774 7.33875 3.15731 7.2575 3.15731 7.02938V5.79375C3.16995 5.72688 3.37837 5.555 3.60321 5.45625C3.71626 5.40562 3.78953 5.295 3.78953 5.17375V3.93625C3.78953 3.24688 3.78953 2.38937 6.31584 2.38937C6.38468 2.38937 6.451 2.36625 6.50531 2.32687Z" fill="black"/>
<path d="M3.48574 7.93563L3.73491 7.91538L3.71876 7.71662L3.52139 7.68818L3.48574 7.93563ZM10.4091 7.93625L10.3735 7.6888L10.1761 7.71721L10.1599 7.91599L10.4091 7.93625ZM10.7369 4.98375H10.4869V5.12949L10.6137 5.2013L10.7369 4.98375ZM10.7369 4.0425L10.5396 3.8889L10.4869 3.95665V4.0425H10.7369ZM11.0104 2.265L11.236 2.15734L11.2358 2.15693L11.0104 2.265ZM6.21163 1.76938L6.21408 2.01936L6.29165 2.0186L6.35516 1.97407L6.21163 1.76938ZM3.15795 4.98375L3.28112 5.2013L3.40795 5.12949V4.98375H3.15795ZM6.50531 2.32687L6.65205 2.52929L6.65357 2.52817L6.50531 2.32687ZM10.4382 2.52937L10.2124 2.63678L10.2127 2.63743L10.4382 2.52937ZM10.1779 3.73688L9.9877 3.57467L9.98672 3.57584L10.1779 3.73688ZM10.2916 5.455L10.3927 5.22636L10.3923 5.22616L10.2916 5.455ZM10.7363 5.79187H10.9863V5.76939L10.9822 5.74726L10.7363 5.79187ZM3.15731 5.79375L2.91166 5.74735L2.90731 5.77035V5.79375H3.15731ZM3.60321 5.45625L3.70374 5.68515L3.70538 5.68442L3.60321 5.45625ZM6.94742 11.4187C6.11126 11.4187 5.3461 10.9801 4.76412 10.3087C4.18175 9.63691 3.80301 8.75327 3.73491 7.91538L3.23656 7.95587C3.31373 8.90548 3.73804 9.8884 4.3863 10.6363C5.03495 11.3845 5.928 11.9187 6.94742 11.9187V11.4187ZM10.1599 7.91599C10.0918 8.75357 9.71311 9.63705 9.13073 10.3088C8.54874 10.9801 7.78359 11.4187 6.94742 11.4187V11.9187C7.96683 11.9187 8.85989 11.3845 9.50853 10.6363C10.1568 9.88858 10.5811 8.90581 10.6583 7.95651L10.1599 7.91599ZM11.1185 7.02875C11.1185 7.28661 10.9324 7.60835 10.3735 7.6888L10.4447 8.1837C11.2058 8.07415 11.6185 7.57714 11.6185 7.02875H11.1185ZM11.1185 5.79125V7.02875H11.6185V5.79125H11.1185ZM10.6137 5.2013C10.7275 5.26573 10.8611 5.35606 10.9635 5.46572C11.0661 5.57569 11.1185 5.68415 11.1185 5.79125H11.6185C11.6185 5.51085 11.4798 5.28619 11.329 5.12459C11.1779 4.96269 10.9958 4.84302 10.8601 4.7662L10.6137 5.2013ZM10.4869 4.0425V4.98375H10.9869V4.0425H10.4869ZM10.7847 2.37266C11.0102 2.84509 10.9423 3.37175 10.5396 3.8889L10.9341 4.1961C11.4308 3.55825 11.5575 2.83116 11.236 2.15734L10.7847 2.37266ZM8.563 1.25C9.62092 1.25 10.4717 1.71973 10.7849 2.37307L11.2358 2.15693C10.8126 1.27402 9.74213 0.75 8.563 0.75V1.25ZM6.35516 1.97407C7.20824 1.37588 8.02477 1.25 8.563 1.25V0.75C7.94544 0.75 7.0226 0.895374 6.0681 1.56468L6.35516 1.97407ZM3.40795 3.93438C3.40795 3.40104 3.49899 2.95526 3.85006 2.62814C4.20959 2.29314 4.89497 2.03228 6.21408 2.01936L6.20918 1.51939C4.84787 1.53272 4.00641 1.79905 3.5092 2.26233C3.00354 2.73349 2.90795 3.35708 2.90795 3.93438H3.40795ZM3.40795 4.98375V3.93438H2.90795V4.98375H3.40795ZM2.77637 5.79063C2.77637 5.68394 2.82866 5.57566 2.93133 5.4657C3.03369 5.35608 3.16733 5.26573 3.28112 5.2013L3.03477 4.7662C2.89909 4.84302 2.71694 4.96267 2.56588 5.12446C2.41513 5.2859 2.27637 5.51043 2.27637 5.79063H2.77637ZM2.77637 7.02812V5.79063H2.27637V7.02812H2.77637ZM3.52139 7.68818C2.96274 7.60769 2.77637 7.28692 2.77637 7.02812H2.27637C2.27637 7.57808 2.69 8.07356 3.45008 8.18307L3.52139 7.68818ZM8.56363 1.36875C8.02149 1.36875 7.20354 1.50216 6.35706 2.12558L6.65357 2.52817C7.39741 1.98034 8.10535 1.86875 8.56363 1.86875V1.36875ZM10.6639 2.42197C10.3457 1.75311 9.47316 1.36875 8.56363 1.36875V1.86875C9.37579 1.86875 10.0115 2.21439 10.2124 2.63678L10.6639 2.42197ZM10.3682 3.89907C10.7609 3.43847 10.9002 2.91496 10.6636 2.42132L10.2127 2.63743C10.3374 2.89754 10.2973 3.21153 9.9877 3.57468L10.3682 3.89907ZM10.3547 3.935C10.3547 3.9232 10.3586 3.91046 10.3692 3.89791L9.98672 3.57584C9.90255 3.67579 9.85468 3.8018 9.85468 3.935H10.3547ZM10.3547 5.1725V3.935H9.85468V5.1725H10.3547ZM10.3923 5.22616C10.367 5.21503 10.3547 5.19266 10.3547 5.1725H9.85468C9.85468 5.39609 9.98891 5.59497 10.191 5.68384L10.3923 5.22616ZM10.9822 5.74726C10.9718 5.68991 10.9461 5.64611 10.9299 5.62173C10.9115 5.59415 10.8906 5.56966 10.8712 5.54914C10.8323 5.50797 10.7847 5.4674 10.7359 5.43036C10.6382 5.3563 10.5138 5.27988 10.3927 5.22636L10.1905 5.68364C10.2716 5.71949 10.3628 5.77495 10.4337 5.8287C10.4691 5.85557 10.4939 5.87789 10.508 5.89277C10.5151 5.90028 10.5159 5.90211 10.5134 5.89841C10.5131 5.89791 10.4974 5.87556 10.4903 5.83649L10.9822 5.74726ZM10.9863 7.02938V5.79187H10.4863V7.02938H10.9863ZM10.1047 7.58875C10.2675 7.58875 10.4606 7.56694 10.6228 7.50186C10.7779 7.4396 10.9863 7.29871 10.9863 7.02938H10.4863C10.4863 6.98879 10.5244 7.00259 10.4366 7.03782C10.3557 7.07025 10.233 7.08875 10.1047 7.08875V7.58875ZM10.0389 7.64813C10.0389 7.6206 10.064 7.58875 10.1047 7.58875V7.08875C9.79675 7.08875 9.53889 7.33565 9.53889 7.64813H10.0389ZM6.94679 11.3012C7.83651 11.3012 8.61253 10.7769 9.15536 10.0815C9.69891 9.38513 10.0389 8.48133 10.0389 7.64813H9.53889C9.53889 8.35617 9.24509 9.15393 8.76122 9.77383C8.27663 10.3946 7.63159 10.8012 6.94679 10.8012V11.3012ZM3.85468 7.64813C3.85468 8.48163 4.19466 9.38544 4.73823 10.0817C5.28107 10.7771 6.05709 11.3012 6.94679 11.3012V10.8012C6.26196 10.8012 5.61692 10.3948 5.13235 9.77405C4.6485 9.15425 4.35468 8.3565 4.35468 7.64813H3.85468ZM3.78889 7.58875C3.82959 7.58875 3.85468 7.6206 3.85468 7.64813H4.35468C4.35468 7.33565 4.09683 7.08875 3.78889 7.08875V7.58875ZM2.90731 7.02938C2.90731 7.29853 3.11585 7.43935 3.2707 7.50158C3.43282 7.56673 3.62586 7.58875 3.78889 7.58875V7.08875C3.66077 7.08875 3.53802 7.07014 3.45714 7.03764C3.36899 7.00221 3.40731 6.98834 3.40731 7.02938H2.90731ZM2.90731 5.79375V7.02938H3.40731V5.79375H2.90731ZM3.50268 5.22735C3.36952 5.28584 3.24356 5.3646 3.14711 5.43968C3.09898 5.47716 3.05346 5.51737 3.01649 5.55767C2.99808 5.57774 2.97849 5.60138 2.96133 5.62776C2.94631 5.65085 2.92198 5.69272 2.91166 5.74735L3.40297 5.84015C3.39581 5.87807 3.38076 5.89993 3.38043 5.90043C3.37796 5.90423 3.37849 5.9027 3.38491 5.89571C3.39759 5.88189 3.4206 5.86042 3.45426 5.83422C3.52139 5.78196 3.61206 5.72541 3.70374 5.68515L3.50268 5.22735ZM3.53953 5.17375C3.53953 5.19303 3.52732 5.21631 3.50104 5.22808L3.70538 5.68442C3.9052 5.59494 4.03953 5.39697 4.03953 5.17375H3.53953ZM3.53953 3.93625V5.17375H4.03953V3.93625H3.53953ZM6.31584 2.13937C5.04223 2.13937 4.32331 2.3517 3.93296 2.7232C3.52957 3.10713 3.53953 3.60479 3.53953 3.93625H4.03953C4.03953 3.57833 4.04948 3.30256 4.27767 3.08539C4.5189 2.8558 5.06313 2.63937 6.31584 2.63937V2.13937ZM6.35858 2.12447C6.34423 2.13487 6.32873 2.13937 6.31584 2.13937V2.63937C6.44063 2.63937 6.55776 2.59763 6.65205 2.52928L6.35858 2.12447Z" fill="black"/>
<path d="M0.315789 15.9999C0.141474 15.9999 0 15.8605 0 15.6905V15.0718C0 13.2799 1.46084 11.978 3.47368 11.978H4.25242L5.15747 10.6549C5.25474 10.513 5.45116 10.4749 5.59579 10.5687C5.74042 10.663 5.77958 10.8568 5.68232 10.998L4.68316 12.4587C4.62442 12.5443 4.52589 12.5955 4.42042 12.5955H3.47305C1.8 12.5955 0.630947 13.6137 0.630947 15.0705V15.6893C0.631579 15.8605 0.490105 15.9999 0.315789 15.9999Z" fill="black" stroke="black" stroke-width="0.5"/>
<path d="M13.5789 16C13.4052 16 13.2631 15.8606 13.2631 15.6906V15.0719C13.2631 13.6144 12.1156 12.5969 10.4728 12.5969H9.52545C9.42124 12.5969 9.32398 12.5469 9.26524 12.4625L8.24019 11.0025C8.14166 10.8612 8.17766 10.6687 8.32166 10.5725C8.46566 10.4769 8.66209 10.5112 8.76061 10.6531L9.69156 11.9794H10.4728C12.4869 11.9794 13.8947 13.2525 13.8947 15.0731V15.6919C13.8947 15.8606 13.7526 16 13.5789 16Z" fill="black" stroke="black" stroke-width="0.5"/>
</svg>
